<mxfile host="app.diagrams.net" modified="2024-05-27T10:34:23.663Z" agent="Mozilla/5.0 (Macintosh; Intel Mac OS X 10_15_7) AppleWebKit/537.36 (KHTML, like Gecko) Chrome/125.0.0.0 Safari/537.36" etag="nGrk--zoC23yZ7Zs1sjl" version="24.4.4" type="github">
  <diagram name="第 1 页" id="_QMCt-Q1CcypF4qz98t8">
    <mxGraphModel dx="1144" dy="2211" grid="1" gridSize="10" guides="1" tooltips="1" connect="1" arrows="1" fold="1" page="1" pageScale="1" pageWidth="827" pageHeight="1169" math="0" shadow="0">
      <root>
        <mxCell id="0" />
        <mxCell id="1" parent="0" />
        <mxCell id="qLrQhXPelNbHVEG1d7tS-1" value="同步流水" style="swimlane;childLayout=stackLayout;resizeParent=1;resizeParentMax=0;startSize=20;html=1;" vertex="1" parent="1">
          <mxGeometry x="30" y="-930" width="530" height="1010" as="geometry">
            <mxRectangle x="110.00000000000045" y="-870" width="60" height="30" as="alternateBounds" />
          </mxGeometry>
        </mxCell>
        <mxCell id="qLrQhXPelNbHVEG1d7tS-2" value="企拍（crm_rp_payable_order_trx）" style="swimlane;startSize=20;html=1;" vertex="1" parent="qLrQhXPelNbHVEG1d7tS-1">
          <mxGeometry y="20" width="310" height="990" as="geometry">
            <mxRectangle y="20" width="40" height="990" as="alternateBounds" />
          </mxGeometry>
        </mxCell>
        <mxCell id="qLrQhXPelNbHVEG1d7tS-24" value="" style="edgeStyle=orthogonalEdgeStyle;rounded=0;orthogonalLoop=1;jettySize=auto;html=1;" edge="1" parent="qLrQhXPelNbHVEG1d7tS-2" source="qLrQhXPelNbHVEG1d7tS-22" target="qLrQhXPelNbHVEG1d7tS-23">
          <mxGeometry relative="1" as="geometry" />
        </mxCell>
        <mxCell id="qLrQhXPelNbHVEG1d7tS-22" value="从BI获取当日当天流水状态" style="rounded=1;whiteSpace=wrap;html=1;" vertex="1" parent="qLrQhXPelNbHVEG1d7tS-2">
          <mxGeometry x="80" y="50" width="150" height="30" as="geometry" />
        </mxCell>
        <mxCell id="qLrQhXPelNbHVEG1d7tS-26" style="edgeStyle=orthogonalEdgeStyle;rounded=0;orthogonalLoop=1;jettySize=auto;html=1;exitX=0.167;exitY=0.501;exitDx=0;exitDy=0;exitPerimeter=0;" edge="1" parent="qLrQhXPelNbHVEG1d7tS-2" source="qLrQhXPelNbHVEG1d7tS-23">
          <mxGeometry relative="1" as="geometry">
            <mxPoint x="60" y="170" as="targetPoint" />
          </mxGeometry>
        </mxCell>
        <mxCell id="qLrQhXPelNbHVEG1d7tS-30" value="" style="edgeStyle=orthogonalEdgeStyle;rounded=0;orthogonalLoop=1;jettySize=auto;html=1;" edge="1" parent="qLrQhXPelNbHVEG1d7tS-2" source="qLrQhXPelNbHVEG1d7tS-23" target="qLrQhXPelNbHVEG1d7tS-29">
          <mxGeometry relative="1" as="geometry" />
        </mxCell>
        <mxCell id="qLrQhXPelNbHVEG1d7tS-23" value="是否生成" style="rhombus;whiteSpace=wrap;html=1;rounded=1;" vertex="1" parent="qLrQhXPelNbHVEG1d7tS-2">
          <mxGeometry x="117.5" y="110" width="75" height="35" as="geometry" />
        </mxCell>
        <mxCell id="qLrQhXPelNbHVEG1d7tS-28" value="结束" style="ellipse;whiteSpace=wrap;html=1;aspect=fixed;" vertex="1" parent="qLrQhXPelNbHVEG1d7tS-2">
          <mxGeometry x="30" y="170" width="50" height="50" as="geometry" />
        </mxCell>
        <mxCell id="qLrQhXPelNbHVEG1d7tS-29" value="" style="whiteSpace=wrap;html=1;rounded=1;" vertex="1" parent="qLrQhXPelNbHVEG1d7tS-2">
          <mxGeometry x="95" y="212.5" width="120" height="60" as="geometry" />
        </mxCell>
        <mxCell id="qLrQhXPelNbHVEG1d7tS-4" value="" style="swimlane;startSize=20;html=1;" vertex="1" parent="qLrQhXPelNbHVEG1d7tS-1">
          <mxGeometry x="310" y="20" width="220" height="990" as="geometry" />
        </mxCell>
        <mxCell id="qLrQhXPelNbHVEG1d7tS-9" value="" style="edgeStyle=orthogonalEdgeStyle;rounded=0;orthogonalLoop=1;jettySize=auto;html=1;" edge="1" parent="1" source="qLrQhXPelNbHVEG1d7tS-6" target="qLrQhXPelNbHVEG1d7tS-8">
          <mxGeometry relative="1" as="geometry" />
        </mxCell>
        <mxCell id="qLrQhXPelNbHVEG1d7tS-6" value="开始" style="ellipse;whiteSpace=wrap;html=1;aspect=fixed;" vertex="1" parent="1">
          <mxGeometry x="60" y="-1090" width="50" height="50" as="geometry" />
        </mxCell>
        <mxCell id="qLrQhXPelNbHVEG1d7tS-7" value="&lt;div style=&quot;text-align: center;&quot;&gt;&lt;b style=&quot;text-wrap: nowrap;&quot;&gt;同步流水定时任务&lt;/b&gt;&lt;br&gt;&lt;/div&gt;" style="text;whiteSpace=wrap;html=1;" vertex="1" parent="1">
          <mxGeometry x="20" y="-1130" width="100" height="30" as="geometry" />
        </mxCell>
        <mxCell id="qLrQhXPelNbHVEG1d7tS-15" value="" style="edgeStyle=orthogonalEdgeStyle;rounded=0;orthogonalLoop=1;jettySize=auto;html=1;" edge="1" parent="1" source="qLrQhXPelNbHVEG1d7tS-8" target="qLrQhXPelNbHVEG1d7tS-14">
          <mxGeometry relative="1" as="geometry" />
        </mxCell>
        <mxCell id="qLrQhXPelNbHVEG1d7tS-8" value="同步流水" style="whiteSpace=wrap;html=1;" vertex="1" parent="1">
          <mxGeometry x="160" y="-1081.25" width="110" height="32.5" as="geometry" />
        </mxCell>
        <mxCell id="qLrQhXPelNbHVEG1d7tS-17" value="" style="edgeStyle=orthogonalEdgeStyle;rounded=0;orthogonalLoop=1;jettySize=auto;html=1;" edge="1" parent="1" source="qLrQhXPelNbHVEG1d7tS-14" target="qLrQhXPelNbHVEG1d7tS-16">
          <mxGeometry relative="1" as="geometry" />
        </mxCell>
        <mxCell id="qLrQhXPelNbHVEG1d7tS-14" value="生成应付单" style="whiteSpace=wrap;html=1;" vertex="1" parent="1">
          <mxGeometry x="345" y="-1082.5" width="115" height="35" as="geometry" />
        </mxCell>
        <mxCell id="qLrQhXPelNbHVEG1d7tS-19" value="" style="edgeStyle=orthogonalEdgeStyle;rounded=0;orthogonalLoop=1;jettySize=auto;html=1;" edge="1" parent="1" source="qLrQhXPelNbHVEG1d7tS-16" target="qLrQhXPelNbHVEG1d7tS-18">
          <mxGeometry relative="1" as="geometry" />
        </mxCell>
        <mxCell id="qLrQhXPelNbHVEG1d7tS-16" value="刷新佣金变更的应付单&lt;br&gt;（只刷新已支付的应付单）" style="whiteSpace=wrap;html=1;" vertex="1" parent="1">
          <mxGeometry x="540" y="-1088.75" width="145" height="47.5" as="geometry" />
        </mxCell>
        <mxCell id="qLrQhXPelNbHVEG1d7tS-18" value="END" style="ellipse;whiteSpace=wrap;html=1;" vertex="1" parent="1">
          <mxGeometry x="760" y="-1092.5" width="55" height="55" as="geometry" />
        </mxCell>
      </root>
    </mxGraphModel>
  </diagram>
</mxfile>
